<?xml version="1.0" encoding="utf-8"?>
<!-- Generator: Adobe Illustrator 24.1.3, SVG Export Plug-In . SVG Version: 6.00 Build 0)  -->
<svg version="1.1" id="Layer_1" xmlns="http://www.w3.org/2000/svg" xmlns:xlink="http://www.w3.org/1999/xlink" x="0px" y="0px"
	 viewBox="0 0 163 56" style="enable-background:new 0 0 163 56;" xml:space="preserve">
<style type="text/css">
	.st0{fill-rule:evenodd;clip-rule:evenodd;fill:#3768FB;}
</style>
<g id="Page-1">
	<g id="alliants-logo-blue-on-transparent--inline">
		<path id="alliants" class="st0" d="M21.5,28.4h6.1V55h-6.1v-2.8c-2.5,2.4-5.2,3.5-8.1,3.5c-3.6,0-6.7-1.3-9-4
			C2,49.1,0.8,45.7,0.8,41.6c0-4,1.2-7.3,3.5-10s5.3-4,8.9-4c3.1,0,5.8,1.3,8.3,3.8V28.4z M7,41.6c0,2.5,0.7,4.6,2,6.2
			c1.4,1.6,3.1,2.4,5.3,2.4c2.3,0,4.1-0.8,5.5-2.3c1.4-1.6,2.1-3.7,2.1-6.2c0-2.5-0.7-4.5-2.1-6.2c-1.4-1.6-3.2-2.4-5.4-2.4
			c-2.1,0-3.8,0.8-5.3,2.4C7.7,37.3,7,39.3,7,41.6z M40,7.8V55h-6.1V11.3L40,7.8z M52.4,0.8V55h-6.1V4.3L52.4,0.8z M64.8,28.4V55
			h-6.1V28.4H64.8z M57.8,17.4c0-1.1,0.4-2,1.2-2.8c0.8-0.8,1.7-1.2,2.8-1.2c1.1,0,2,0.4,2.8,1.2c0.8,0.8,1.2,1.7,1.2,2.8
			s-0.4,2.1-1.2,2.8c-0.8,0.8-1.7,1.2-2.8,1.2c-1.1,0-2-0.4-2.8-1.2C58.2,19.5,57.8,18.5,57.8,17.4z M90.6,28.4h6.1V55h-6.1v-2.8
			c-2.5,2.4-5.2,3.5-8.1,3.5c-3.6,0-6.7-1.3-9-4c-2.4-2.7-3.5-6.1-3.5-10.1c0-4,1.2-7.3,3.5-10c2.4-2.7,5.3-4,8.9-4
			c3.1,0,5.8,1.3,8.3,3.8V28.4z M76.1,41.6c0,2.5,0.7,4.6,2,6.2c1.4,1.6,3.1,2.4,5.3,2.4c2.3,0,4.1-0.8,5.5-2.3
			c1.4-1.6,2.1-3.7,2.1-6.2c0-2.5-0.7-4.5-2.1-6.2c-1.4-1.6-3.2-2.4-5.4-2.4c-2.1,0-3.8,0.8-5.3,2.4C76.8,37.3,76.1,39.3,76.1,41.6z
			 M103,28.4h6.1v2.5c2.1-2.1,4.5-3.2,7.2-3.2c3.1,0,5.5,1,7.2,2.9c1.5,1.7,2.2,4.4,2.2,8.1V55h-6.1V40.2c0-2.6-0.4-4.4-1.1-5.4
			c-0.7-1-2-1.5-3.8-1.5c-2,0-3.5,0.7-4.3,2c-0.8,1.3-1.2,3.6-1.2,7V55H103V28.4z M138.3,34.2V55h-6.1V34.2h-2.6v-5.7h2.6v-9.7h6.1
			v9.7h4.7v5.7H138.3z M161.1,33l-5,2.7c-0.8-1.6-1.8-2.5-3-2.5c-0.6,0-1,0.2-1.4,0.6c-0.4,0.4-0.6,0.8-0.6,1.4c0,1,1.2,2,3.5,3
			c3.2,1.4,5.4,2.7,6.5,3.9c1.1,1.2,1.7,2.8,1.7,4.8c0,2.6-0.9,4.7-2.8,6.4c-1.8,1.6-4,2.5-6.6,2.5c-4.4,0-7.6-2.2-9.4-6.5l5.2-2.4
			c0.7,1.3,1.3,2.1,1.7,2.4c0.7,0.7,1.6,1,2.7,1c2.1,0,3.1-0.9,3.1-2.8c0-1.1-0.8-2.1-2.4-3.1c-0.6-0.3-1.2-0.6-1.8-0.9
			s-1.2-0.6-1.9-0.9c-1.8-0.9-3-1.7-3.7-2.6c-0.9-1.1-1.4-2.5-1.4-4.3c0-2.3,0.8-4.2,2.4-5.7c1.6-1.5,3.6-2.3,5.8-2.3
			C157,27.7,159.5,29.5,161.1,33z"/>
	</g>
</g>
</svg>
