<?xml version="1.0" encoding="utf-8"?>
<svg class="logo-image" viewBox="0 0 157 50" width="157" height="50" fill="none" xmlns="http://www.w3.org/2000/svg">
    <path class="logo-shape" d="M7.453 49.904a7.525 7.525 0 0 1-6.346-3.582 7.401 7.401 0 0 1-.298-7.258L17.863 4.542a7.471 7.471 0 0 1 13.359-.025L48.3 39.09a7.39 7.39 0 0 1-.31 7.233 7.525 7.525 0 0 1-6.346 3.582 7.502 7.502 0 0 1-2.848-.566 37.874 37.874 0 0 0-28.495 0 7.503 7.503 0 0 1-2.848.566ZM24.55 39.198a44.847 44.847 0 0 1 17.028 3.328.25.25 0 0 0 .068.02.244.244 0 0 0 .097-.117.593.593 0 0 1-.026-.057L24.637 7.801c-.012-.025-.019-.038-.088-.038-.07 0-.076.013-.1.062L7.393 42.347a.426.426 0 0 0-.038.092.25.25 0 0 0 .102.107.328.328 0 0 0 .062-.02 44.841 44.841 0 0 1 17.029-3.328Z" fill="#1EFF71"></path>
    <path class="logo-title" fill="#fff" d="m53.612 12.386-.758-2.04H47.69l-.758 2.04h-2.907L48.665.343h3.214l4.64 12.043h-2.907Zm-3.34-9.479L48.394 8.09h3.756l-1.878-5.182Zm18.131 9.479V6.88c0-.812-.361-1.39-1.3-1.39a2.314 2.314 0 0 0-1.806 1.012v5.885h-2.31V6.88c0-.812-.362-1.39-1.3-1.39a2.376 2.376 0 0 0-1.806 1.012v5.885h-2.293v-8.72h2.293v1.12a3.908 3.908 0 0 1 2.853-1.337c1.281 0 2.112.596 2.419 1.57a3.736 3.736 0 0 1 2.997-1.57c1.607 0 2.564.849 2.564 2.636v6.301h-2.311Zm3.921-4.37c0-2.528 1.877-4.568 4.513-4.568 2.618 0 4.37 1.95 4.37 4.785v.541h-6.482c.162 1.066 1.029 1.95 2.51 1.95a3.647 3.647 0 0 0 2.31-.848l1.03 1.516c-.867.795-2.24 1.21-3.593 1.21-2.654 0-4.658-1.788-4.658-4.586Zm4.513-2.69a2.011 2.011 0 0 0-2.13 1.86h4.297c-.072-.83-.65-1.86-2.167-1.86Zm5.935 7.06v-8.72h2.293v1.173a3.824 3.824 0 0 1 2.781-1.39v2.239a2.935 2.935 0 0 0-.632-.054c-.758 0-1.77.433-2.148.993v5.76h-2.294Zm6.077-11.032a1.363 1.363 0 1 1 2.725.018 1.363 1.363 0 0 1-2.725-.018Zm.216 2.31h2.293v8.721h-2.293v-8.72Zm3.838 4.352c0-2.672 1.95-4.568 4.622-4.568 1.787 0 2.871.777 3.449 1.57l-1.499 1.41a2.114 2.114 0 0 0-1.842-.94c-1.39 0-2.364 1.011-2.364 2.528 0 1.516.974 2.546 2.364 2.546a2.171 2.171 0 0 0 1.842-.957l1.499 1.408c-.578.794-1.662 1.589-3.449 1.589-2.672 0-4.622-1.896-4.622-4.586m14.754 4.369v-.92c-.596.722-1.625 1.137-2.762 1.137-1.391 0-3.015-.939-3.015-2.889 0-2.058 1.624-2.816 3.015-2.816 1.173 0 2.185.379 2.762 1.065V6.86c0-.884-.758-1.462-1.913-1.462a3.667 3.667 0 0 0-2.51 1.03l-.903-1.607a5.631 5.631 0 0 1 3.81-1.372c2.004 0 3.827.794 3.827 3.303v5.633h-2.311Zm0-2.094V9.208a2.303 2.303 0 0 0-1.841-.777c-.903 0-1.643.488-1.643 1.318 0 .83.74 1.3 1.643 1.3.74 0 1.462-.253 1.841-.758Zm10.31 2.094V7.113c0-1.21-.631-1.625-1.606-1.625a2.553 2.553 0 0 0-1.986 1.011v5.886h-2.293v-8.72h2.293v1.119a4.077 4.077 0 0 1 3.051-1.336c1.932 0 2.853 1.083 2.853 2.78v6.157h-2.312ZM53.669 29.387l1.408-2.004a5.291 5.291 0 0 0 3.828 1.643c1.426 0 2.094-.632 2.094-1.337 0-2.093-6.933-.631-6.933-5.163 0-2.004 1.733-3.665 4.568-3.665 1.914 0 3.502.578 4.694 1.68l-1.426 1.913a5.173 5.173 0 0 0-3.503-1.318c-1.083 0-1.697.47-1.697 1.192 0 1.895 6.915.613 6.915 5.109 0 2.203-1.589 3.863-4.821 3.863-2.329 0-3.99-.776-5.127-1.913m11.937-.487v-4.533H64.16v-2.003h1.445V19.98h2.293v2.384h1.769v2.003h-1.77v3.918c0 .56.29.975.795.975.29.013.573-.084.794-.27l.488 1.75c-.343.308-.957.56-1.914.56-1.607 0-2.455-.83-2.455-2.4m11.476 2.184v-1.102a4.146 4.146 0 0 1-3.069 1.318c-1.913 0-2.816-1.047-2.816-2.744v-6.193h2.293v5.29c0 1.21.632 1.607 1.607 1.607a2.568 2.568 0 0 0 1.985-.993v-5.904h2.293v8.72h-2.293Zm10.5 0v-1.12a3.359 3.359 0 0 1-2.69 1.337c-2.184 0-3.863-1.661-3.863-4.586 0-2.834 1.643-4.568 3.864-4.568a3.307 3.307 0 0 1 2.69 1.336v-4.442h2.31v12.043h-2.31Zm0-2.817V25.18a2.485 2.485 0 0 0-1.967-.993c-1.318 0-2.221 1.03-2.221 2.528 0 1.516.903 2.546 2.22 2.546a2.487 2.487 0 0 0 1.968-.994m3.932-1.553c0-2.527 1.878-4.567 4.514-4.567 2.618 0 4.369 1.95 4.369 4.784v.541h-6.481c.161 1.066 1.029 1.95 2.51 1.95a3.647 3.647 0 0 0 2.31-.848l1.03 1.516c-.868.795-2.24 1.21-3.594 1.21-2.654 0-4.658-1.788-4.658-4.586Zm4.514-2.69a2.011 2.011 0 0 0-2.13 1.86h4.296c-.072-.83-.65-1.86-2.166-1.86Zm11.827 7.059v-5.272c0-1.21-.632-1.625-1.607-1.625a2.55 2.55 0 0 0-1.986 1.012v5.885h-2.293v-8.72h2.293v1.12a4.088 4.088 0 0 1 3.051-1.336c1.933 0 2.853 1.082 2.853 2.78v6.156h-2.311Zm4.912-2.183v-4.533h-1.445v-2.003h1.445V19.98h2.293v2.384h1.769v2.003h-1.769v3.918c0 .56.288.975.794.975.289.013.573-.084.794-.27l.488 1.75c-.343.308-.957.56-1.914.56-1.607 0-2.455-.83-2.455-2.4Z" ></path>
    <path class="logo-title" fill="#fff" d="m72.032 49.783-.758-2.04H66.11l-.758 2.04h-2.907l4.64-12.042H70.3l4.64 12.042h-2.907Zm-3.34-9.478-1.878 5.182h3.756l-1.878-5.182Zm6.78 8.341.992-1.661a4.943 4.943 0 0 0 3.016 1.21c.993 0 1.462-.38 1.462-.921 0-1.427-5.164-.253-5.164-3.683 0-1.463 1.264-2.745 3.575-2.745a5.554 5.554 0 0 1 3.503 1.192l-.92 1.625a3.76 3.76 0 0 0-2.583-1.01c-.83 0-1.372.36-1.372.848 0 1.281 5.182.198 5.182 3.719 0 1.606-1.372 2.78-3.792 2.78-1.516 0-2.979-.505-3.9-1.354m8.546 0 .993-1.661a4.944 4.944 0 0 0 3.016 1.21c.992 0 1.462-.38 1.462-.921 0-1.427-5.164-.253-5.164-3.683 0-1.463 1.264-2.745 3.575-2.745a5.553 5.553 0 0 1 3.502 1.192l-.92 1.625a3.76 3.76 0 0 0-2.582-1.01c-.83 0-1.372.36-1.372.848 0 1.281 5.181.198 5.181 3.719 0 1.606-1.372 2.78-3.791 2.78-1.517 0-2.98-.505-3.9-1.354Zm9.02-9.894a1.363 1.363 0 1 1 2.726.018 1.363 1.363 0 0 1-2.726-.018Zm.217 2.31h2.293v8.721h-2.293v-8.72Zm3.699 7.584.992-1.661a4.942 4.942 0 0 0 3.016 1.21c.993 0 1.462-.38 1.462-.921 0-1.427-5.164-.253-5.164-3.683 0-1.463 1.264-2.745 3.575-2.745a5.554 5.554 0 0 1 3.503 1.192l-.921 1.625a3.76 3.76 0 0 0-2.582-1.01c-.83 0-1.372.36-1.372.848 0 1.281 5.182.198 5.182 3.719 0 1.606-1.372 2.78-3.792 2.78-1.516 0-2.979-.505-3.9-1.354Zm9.857-1.048v-4.532h-1.445v-2.004h1.445v-2.383h2.293v2.383h1.769v2.004h-1.769v3.918c0 .56.289.975.794.975.29.012.573-.084.795-.271l.487 1.751c-.343.307-.956.56-1.914.56-1.606 0-2.455-.83-2.455-2.401m10.837 2.185v-.92c-.596.722-1.625 1.137-2.762 1.137-1.39 0-3.015-.939-3.015-2.889 0-2.058 1.625-2.816 3.015-2.816 1.174 0 2.185.378 2.762 1.065v-1.102c0-.884-.758-1.462-1.913-1.462a3.665 3.665 0 0 0-2.51 1.03l-.903-1.608a5.63 5.63 0 0 1 3.809-1.372c2.005 0 3.828.795 3.828 3.304v5.633h-2.311Zm0-2.094v-1.083a2.303 2.303 0 0 0-1.841-.777c-.903 0-1.643.488-1.643 1.318 0 .83.74 1.3 1.643 1.3.74 0 1.462-.253 1.841-.758Zm10.302 2.094v-5.272c0-1.21-.632-1.625-1.607-1.625a2.55 2.55 0 0 0-1.986 1.011v5.886h-2.293v-8.72h2.293v1.119a4.079 4.079 0 0 1 3.051-1.336c1.932 0 2.853 1.083 2.853 2.78v6.157h-2.311Zm3.9-4.37c0-2.671 1.95-4.567 4.621-4.567 1.788 0 2.871.777 3.449 1.57l-1.499 1.409a2.111 2.111 0 0 0-1.841-.939c-1.39 0-2.365 1.011-2.365 2.527 0 1.518.975 2.547 2.365 2.547a2.172 2.172 0 0 0 1.841-.958l1.499 1.41c-.578.793-1.661 1.588-3.449 1.588-2.671 0-4.621-1.896-4.621-4.587Zm8.664 0c0-2.527 1.878-4.567 4.514-4.567 2.618 0 4.369 1.95 4.369 4.785v.541h-6.482c.163 1.066 1.03 1.95 2.51 1.95a3.644 3.644 0 0 0 2.311-.848l1.029 1.516c-.866.795-2.239 1.21-3.593 1.21-2.654 0-4.658-1.788-4.658-4.587Zm4.514-2.69a2.01 2.01 0 0 0-2.131 1.86h4.298c-.073-.83-.651-1.86-2.167-1.86Zm8.857-1.42a2.54 2.54 0 0 1-2.349-1.57 2.54 2.54 0 0 1 1.853-3.467 2.544 2.544 0 1 1 .496 5.037Zm0-4.666a2.124 2.124 0 1 0 1.965 1.309 2.1 2.1 0 0 0-1.15-1.15 2.11 2.11 0 0 0-.815-.159Zm.685 3.587-.756-1.152h-.468v1.152h-.444v-2.916h1.187a.939.939 0 0 1 .984.888.855.855 0 0 1-.743.864l.779 1.164h-.539Zm-.481-2.543h-.743v1.007h.743a.506.506 0 0 0 .373-.869.51.51 0 0 0-.373-.138Z"></path>
</svg>
