<svg viewBox="0 0 2474 1064" fill="none" xmlns="http://www.w3.org/2000/svg">
<path d="M2383.15 230.551C2398.38 332.209 2413.61 435.95 2396.34 537.262C2379.07 638.574 2323.44 738.96 2230.84 783.602C2116.61 838.653 1971.04 792.469 1887.5 697.094C1803.96 601.719 1775.01 468.256 1781.14 341.616C1784.46 272.918 1812.06 189.185 1880.26 180.049C1948.18 170.912 1997.14 244.236 2016.3 310.004C2048.18 419.489 2047.68 538.187 2014.84 647.402C1996.29 709.045 1966.57 769.107 1918.5 811.899C1870.39 854.652 1801.65 877.59 1739.78 859.779C1639.24 830.827 1595.67 716.292 1558.51 618.489C1512.56 497.593 1455.19 381.015 1387.46 270.836C1351.76 212.779 1312.01 155.261 1256.66 115.514C1201.3 75.7684 1127.2 56.3002 1063.59 80.8572C960.237 120.757 927.893 258.616 960.623 364.476C993.353 470.337 1071.38 554.764 1135.34 645.243C1181.4 710.433 1218.3 807.041 1161.36 863.017C1120.07 903.573 1051.06 896.094 998.634 871.614C908.618 829.632 839.843 744.704 817.445 647.942C798.015 564.055 812.125 476.621 815.671 390.575C819.218 304.53 809.311 211.275 752.255 146.779C698.746 86.2928 606.802 63.3165 531.127 91.4972C455.451 119.678 400.94 197.204 400.054 277.968C398.704 397.63 498.551 489.921 581.436 576.198C664.32 662.514 741.114 788.228 686.873 894.86C653.295 960.937 575.152 996.442 501.096 993.936C427.039 991.43 357.378 956.272 298.857 910.782C118.092 770.187 31.2368 519.143 86.4803 296.897" stroke="#265af4" stroke-width="139" stroke-miterlimit="10"/>
</svg>
