<?xml version="1.0" encoding="utf-8"?>
<svg viewBox="0 0 224 28" fill="none" xmlns="http://www.w3.org/2000/svg">
<path fill-rule="evenodd" clip-rule="evenodd" d="M46.9903 4.73753L46.776 4.87228C45.4044 5.75162 44.1221 6.81935 42.967 8.07376L24.6199 28H0L20.0187 6.25842C27.1371 -1.47261 39.0912 -2.1127 46.9903 4.73753Z" fill="white"/>
<path fill-rule="evenodd" clip-rule="evenodd" d="M30.565 27.9997L46.2061 11.0124C53.425 3.17235 65.617 2.62468 73.5096 9.78597L93.5836 27.9997H30.565Z" fill="white"/>
<path d="M116.702 2.45349V23.9912H128.691V27.672H112.401V2.45349H116.702Z" fill="white"/>
<path d="M128.937 18.6341C128.937 17.3464 129.119 16.1317 129.484 14.9898C129.848 13.8479 130.389 12.8518 131.105 12.0015C131.822 11.1511 132.703 10.4769 133.747 9.97889C134.792 9.48084 135.995 9.23181 137.355 9.23181C138.716 9.23181 139.924 9.48084 140.981 9.97889C142.038 10.4769 142.925 11.1511 143.642 12.0015C144.358 12.8518 144.905 13.8479 145.282 14.9898C145.658 16.1317 145.846 17.3464 145.846 18.6341C145.846 19.9217 145.658 21.1365 145.282 22.2784C144.905 23.4202 144.358 24.4103 143.642 25.2485C142.925 26.0866 142.038 26.7487 140.981 27.2346C139.924 27.7205 138.716 27.9635 137.355 27.9635C135.995 27.9635 134.792 27.7205 133.747 27.2346C132.703 26.7487 131.822 26.0866 131.105 25.2485C130.389 24.4103 129.848 23.4202 129.484 22.2784C129.119 21.1365 128.937 19.9217 128.937 18.6341ZM133.055 18.6341C133.055 19.4358 133.152 20.189 133.346 20.8935C133.541 21.5981 133.826 22.2116 134.203 22.7339C134.579 23.2563 135.035 23.6693 135.569 23.973C136.104 24.2767 136.699 24.4285 137.355 24.4285C138.011 24.4285 138.606 24.2767 139.141 23.973C139.675 23.6693 140.131 23.2563 140.508 22.7339C140.884 22.2116 141.176 21.5981 141.382 20.8935C141.589 20.189 141.692 19.4358 141.692 18.6341C141.692 17.8323 141.589 17.0792 141.382 16.3746C141.176 15.6701 140.884 15.0505 140.508 14.516C140.131 13.9815 139.675 13.5624 139.141 13.2588C138.606 12.9551 138.011 12.8032 137.355 12.8032C136.699 12.8032 136.104 12.9551 135.569 13.2588C135.035 13.5624 134.579 13.9815 134.203 14.516C133.826 15.0505 133.541 15.6701 133.346 16.3746C133.152 17.0792 133.055 17.8323 133.055 18.6341Z" fill="white"/>
<path d="M148.097 15.3907C148.17 14.3217 148.437 13.3984 148.898 12.621C149.36 11.8436 149.937 11.2058 150.629 10.7077C151.322 10.2097 152.093 9.83919 152.944 9.59624C153.794 9.35329 154.644 9.23181 155.495 9.23181C156.442 9.23181 157.353 9.33507 158.228 9.54158C159.102 9.74809 159.88 10.0821 160.56 10.5438C161.24 11.0054 161.787 11.5885 162.2 12.293C162.613 12.9976 162.82 13.8601 162.82 14.8805V23.7361C162.82 23.9304 162.856 24.1066 162.929 24.2645C163.002 24.4224 163.087 24.5014 163.184 24.5014C163.233 24.5014 163.403 24.4528 163.694 24.3556C163.986 24.2584 164.374 24.1491 164.86 24.0276V27.4897C164.277 27.6841 163.804 27.8177 163.439 27.8906C163.075 27.9635 162.686 27.9999 162.273 27.9999C161.568 27.9999 160.949 27.8359 160.414 27.5079C159.88 27.1799 159.479 26.6272 159.212 25.8498C158.288 26.6758 157.347 27.2407 156.387 27.5444C155.428 27.8481 154.462 27.9999 153.49 27.9999C152.688 27.9999 151.929 27.8723 151.212 27.6172C150.496 27.3621 149.876 26.9977 149.354 26.524C148.832 26.0502 148.419 25.4853 148.115 24.8294C147.811 24.1734 147.659 23.4324 147.659 22.6064C147.659 21.6831 147.878 20.9057 148.315 20.274C148.753 19.6423 149.317 19.12 150.01 18.707C150.702 18.2939 151.474 17.9477 152.324 17.6683C153.174 17.3889 154.013 17.1399 154.839 16.9213C155.349 16.7755 155.829 16.6358 156.278 16.5022C156.728 16.3685 157.128 16.2228 157.481 16.0649C157.833 15.9069 158.112 15.7308 158.319 15.5364C158.525 15.3421 158.629 15.1234 158.629 14.8805C158.629 14.1273 158.349 13.5928 157.79 13.277C157.232 12.9611 156.442 12.8032 155.422 12.8032C154.644 12.8032 153.97 13.0037 153.399 13.4045C152.828 13.8054 152.47 14.4674 152.324 15.3907H148.097ZM158.629 18.9621C158.191 19.1564 157.724 19.3386 157.226 19.5087C156.728 19.6788 156.211 19.8367 155.677 19.9825L155.385 20.0553C154.924 20.2011 154.48 20.3469 154.055 20.4927C153.63 20.6384 153.253 20.8024 152.925 20.9846C152.597 21.1669 152.33 21.3794 152.124 21.6224C151.917 21.8653 151.814 22.1447 151.814 22.4606C151.814 23.1894 152.026 23.7118 152.452 24.0276C152.877 24.3435 153.344 24.5014 153.855 24.5014C154.681 24.5014 155.519 24.222 156.369 23.6632C157.219 23.1044 157.973 22.2784 158.629 21.1851V18.9621Z" fill="white"/>
<path d="M166.017 9.5598H170.172V10.7989C170.876 10.2401 171.611 9.83919 172.376 9.59624C173.142 9.35329 173.889 9.23181 174.618 9.23181C175.468 9.23181 176.27 9.41403 177.023 9.77846C177.776 10.1429 178.469 10.7381 179.1 11.5642C179.829 10.7138 180.679 10.1125 181.651 9.76023C182.623 9.40795 183.571 9.23181 184.494 9.23181C185.393 9.23181 186.213 9.37758 186.954 9.66913C187.695 9.96067 188.332 10.3615 188.867 10.8717C189.401 11.3819 189.82 11.9893 190.124 12.6939C190.428 13.3984 190.58 14.1637 190.58 14.9898V27.6719H186.462V15.6822C186.462 15.1234 186.383 14.6557 186.225 14.2792C186.067 13.9026 185.873 13.605 185.642 13.3863C185.411 13.1676 185.15 13.0158 184.858 12.9308C184.567 12.8457 184.275 12.8032 183.984 12.8032C183.571 12.8032 183.158 12.9004 182.744 13.0948C182.331 13.2891 181.955 13.5564 181.615 13.8965C181.275 14.2366 180.995 14.6436 180.777 15.1173C180.558 15.5911 180.449 16.1074 180.449 16.6662V27.6719H176.294V15.6822C176.294 15.1234 176.221 14.6557 176.075 14.2792C175.93 13.9026 175.741 13.605 175.511 13.3863C175.28 13.1676 175.031 13.0158 174.764 12.9308C174.496 12.8457 174.241 12.8032 173.998 12.8032C173.464 12.8032 172.966 12.9308 172.504 13.1859C172.042 13.441 171.635 13.769 171.283 14.1698C170.931 14.5707 170.658 15.008 170.463 15.4818C170.269 15.9555 170.172 16.4111 170.172 16.8484V27.6719H166.017V9.5598Z" fill="white"/>
<path d="M197.312 2.85413V7.0815H193.158V2.85413H197.312ZM197.312 9.55962V27.6717H193.158V9.55962H197.312Z" fill="white"/>
<path d="M202.623 21.1122C202.672 22.3513 202.982 23.2259 203.553 23.7361C204.124 24.2463 204.834 24.5014 205.685 24.5014C206.049 24.5014 206.426 24.471 206.814 24.4103C207.203 24.3495 207.562 24.2402 207.889 24.0823C208.217 23.9244 208.491 23.7179 208.709 23.4628C208.928 23.2077 209.037 22.8857 209.037 22.497C209.037 22.1812 208.934 21.9018 208.728 21.6588C208.521 21.4159 208.248 21.1912 207.908 20.9846C207.568 20.7781 207.173 20.5959 206.723 20.438C206.274 20.2801 205.806 20.1161 205.32 19.946C204.567 19.6788 203.814 19.3994 203.061 19.1078C202.308 18.8163 201.633 18.4579 201.038 18.0328C200.443 17.6076 199.957 17.0913 199.581 16.4839C199.204 15.8766 199.016 15.1356 199.016 14.2609C199.016 13.4106 199.198 12.6696 199.562 12.0379C199.927 11.4062 200.419 10.8839 201.038 10.4709C201.658 10.0579 202.368 9.74809 203.17 9.54158C203.972 9.33507 204.81 9.23181 205.685 9.23181C206.657 9.23181 207.568 9.34721 208.418 9.57802C209.268 9.80882 210.003 10.1672 210.623 10.6531C211.242 11.139 211.74 11.7585 212.117 12.5117C212.493 13.2648 212.706 14.1516 212.755 15.172C212.706 15.172 212.603 15.172 212.445 15.172C212.287 15.172 212.123 15.1659 211.953 15.1538C211.783 15.1416 211.625 15.1356 211.479 15.1356C211.333 15.1356 211.224 15.1356 211.151 15.1356H208.6C208.479 14.2123 208.145 13.5928 207.598 13.277C207.051 12.9611 206.414 12.8032 205.685 12.8032C204.883 12.8032 204.269 12.9368 203.844 13.2041C203.419 13.4713 203.207 13.8358 203.207 14.2974C203.207 14.8562 203.565 15.3178 204.282 15.6822C204.998 16.0466 205.83 16.3989 206.778 16.739L206.96 16.8119C207.689 17.0792 208.43 17.3586 209.183 17.6501C209.936 17.9417 210.611 18.2939 211.206 18.707C211.801 19.12 212.287 19.612 212.664 20.1829C213.04 20.7538 213.228 21.4402 213.228 22.2419C213.228 23.2623 213.028 24.137 212.627 24.8658C212.226 25.5947 211.68 26.1899 210.987 26.6515C210.295 27.1131 209.493 27.4533 208.582 27.6719C207.671 27.8906 206.705 27.9999 205.685 27.9999C204.713 27.9999 203.79 27.8602 202.915 27.5808C202.04 27.3014 201.275 26.8762 200.619 26.3053C199.963 25.7344 199.435 25.0177 199.034 24.1552C198.633 23.2927 198.42 22.2784 198.396 21.1122H202.623Z" fill="white"/>
<path d="M220.872 4.56702V9.55969H223.46V13.0218H220.872V23.2258C220.872 23.7117 220.969 24.0457 221.164 24.228C221.358 24.4102 221.589 24.5013 221.856 24.5013C222.002 24.5013 222.227 24.477 222.53 24.4284C222.834 24.3798 223.277 24.2948 223.86 24.1733V27.526C223.326 27.6961 222.804 27.8176 222.293 27.8905C221.783 27.9634 221.309 27.9998 220.872 27.9998C220.313 27.9998 219.779 27.933 219.269 27.7994C218.758 27.6657 218.315 27.441 217.938 27.1252C217.562 26.8093 217.258 26.4085 217.027 25.9226C216.797 25.4366 216.681 24.8293 216.681 24.1004V13.0218H214.057V9.55969H216.681V4.56702H220.872Z" fill="white"/>
</svg>
