<svg viewBox="0 0 2474 1465" fill="none" xmlns="http://www.w3.org/2000/svg">
<path d="M117.826 325.88C58.0571 461.694 52.1176 622.622 112.448 758.202C172.779 893.782 301.764 999.337 448.615 1020.8C595.466 1042.27 754.336 973.427 830.194 845.891C894.593 737.577 876.961 567.67 759.902 521.136C695.222 495.413 618.85 515.757 564.038 558.69C509.273 601.623 473.028 663.965 445.388 727.85C370.934 899.768 357.278 1118.45 481.54 1258.66C576.198 1365.39 729.783 1401.77 872.238 1394.48C1228.8 1376.24 1555.52 1096.05 1627.87 746.463C1645.54 661.112 1648.72 569.353 1613.65 489.568C1578.53 409.782 1497.94 345.803 1410.91 350.761C1338.28 354.923 1275.05 404.777 1233.05 464.173C1147.37 585.348 1134.61 750.719 1187.83 889.245C1241 1027.77 1355.12 1138.75 1489.43 1201.84C1719.9 1310.06 2014.12 1272.09 2203.25 1101.62C2392.38 931.149 2459.58 635.53 2354.17 403.749C2248.71 171.921 1974.27 27.6419 1725.33 81.1443" stroke="#EBEBEB" stroke-width="139" stroke-miterlimit="10"/>
</svg>
