<svg viewBox="0 0 2087 1927" fill="none" xmlns="http://www.w3.org/2000/svg">
<path d="M1155.42 241.27C1004.62 50.0482 703.516 1.94985 497.7 132.023C291.883 262.096 205.434 549.834 300.406 774.027C395.377 998.219 657.335 1136.02 896.974 1092.76C1018.84 1070.77 1140.02 997.793 1181.09 880.983C1215.61 782.922 1186.74 670.107 1124.47 586.907C1062.15 503.653 970.427 446.766 874.55 406.498C644.125 309.662 346.001 314.403 177.79 499.232C57.4639 631.33 30.4053 833.098 88.1979 1002.16C145.99 1171.22 279.26 1307.74 435.379 1394.62C527.688 1445.97 631.128 1482.08 736.753 1479.58C842.324 1477.07 950.026 1431.64 1011.6 1345.83C1124.26 1188.85 1033.81 944.422 860.168 859.677C686.524 774.932 469.469 826.919 317.078 945.647C202.238 1035.13 113.392 1166.59 103.591 1311.84C91.447 1492.15 205.86 1665.52 361.341 1757.67C516.822 1849.77 706.072 1870.17 885.842 1852.16C1033.49 1837.36 1180.77 1797.2 1305.78 1717.19C1430.8 1637.19 1532.11 1514.89 1569.07 1371.13C1586.81 1302.2 1589.15 1227.21 1561.94 1161.48C1534.72 1095.75 1474.1 1041.42 1403.26 1034.44C1296.99 1023.95 1208.26 1116.2 1159.3 1211.12C1069.18 1385.88 1062.58 1621.21 1200.59 1761.29C1330.61 1893.29 1555.7 1897.97 1714.17 1802.1C1872.63 1706.22 1969.31 1529.91 2008.88 1348.92C2035.41 1227.53 2038.44 1096.6 1988.11 982.986C1937.77 869.371 1825.49 777.968 1701.22 778.821" stroke="oklch(0.9401 0 0)" stroke-width="117.245" stroke-miterlimit="10"/>
</svg>
