<svg viewBox="0 0 708 371" fill="none" xmlns="http://www.w3.org/2000/svg">
    <path d="M536.313 140.506V103.814H562.985V65H605.72V103.814H643V140.506H605.72V196.301C605.72 209.037 612.085 215.708 624.209 215.708H643V252.703H618.45C582.08 252.703 562.985 235.721 562.985 199.333V140.506H536.313Z" fill="currentColor"/>
    <path d="M527.851 104.129V253.017H486.328V237.552C475.72 249.682 460.869 257.263 443.29 257.263C409.648 257.263 386.916 231.488 386.916 189.035V104.129H429.651V187.822C429.651 204.803 439.35 217.842 456.323 217.842C472.993 217.842 485.419 205.409 485.419 185.699V104.129H527.851Z" fill="currentColor"/>
    <path d="M302.942 257.059C258.994 257.059 225.958 223.703 225.958 179.734C225.958 134.855 262.328 99.6797 304.761 99.6797C346.586 99.6797 378.411 131.823 378.411 172.456C378.411 177.005 378.107 183.069 377.198 189.437H267.481C271.421 209.754 286.878 221.58 305.367 221.58C319.309 221.58 331.129 214.303 334.463 204.902H376.289C369.318 233.71 342.343 257.059 302.942 257.059ZM269.906 159.114H335.069C333.857 145.468 321.43 134.248 304.457 134.248C289 134.248 275.967 143.346 269.906 159.114Z" fill="currentColor"/>
    <path d="M110.433 191.135C112.016 190.104 114.137 190.7 115.127 192.31C119.258 199.024 125.512 204.291 132.954 207.178C134.334 207.714 135.257 209.064 135.128 210.539L132.291 242.91C132.139 244.638 130.614 245.923 128.894 245.698C118.918 244.392 109.304 241.047 100.657 235.86C92.0098 230.673 84.5327 223.765 78.6834 215.579C77.6753 214.167 78.0909 212.217 79.544 211.269L110.433 191.135Z" fill="currentColor"/>
    <path d="M67.3843 154.334C67.8227 152.655 69.587 151.725 71.2453 152.235L108.011 163.538C109.609 164.029 110.527 165.684 110.254 167.334C109.933 169.277 109.765 171.272 109.765 173.306C109.765 177.051 110.333 180.663 111.385 184.062C111.86 185.593 111.25 187.286 109.834 188.036L76.3169 205.791C74.7838 206.603 72.876 206.021 72.1302 204.455C68.4428 196.71 66.1372 188.37 65.327 179.814C64.5166 171.258 65.2163 162.634 67.3843 154.334Z" fill="currentColor"/>
    <path d="M97.9599 111.621C99.4075 110.665 101.342 111.151 102.235 112.639L120.871 143.664C121.655 144.97 121.38 146.639 120.307 147.72C117.205 150.845 114.667 154.532 112.859 158.614C112.122 160.28 110.21 161.162 108.527 160.462L73.5249 145.915C71.9229 145.249 71.1577 143.406 71.8914 141.834C77.6248 129.55 86.6485 119.092 97.9599 111.621Z" fill="currentColor"/>
    <path d="M128.734 100.105C130.453 99.8756 131.981 101.157 132.136 102.885L135.119 136.067C135.252 137.543 134.328 138.898 132.946 139.434C131.069 140.163 129.268 141.043 127.557 142.059C125.865 143.065 123.608 142.525 122.745 140.756L107.599 109.726C106.838 108.167 107.484 106.279 109.074 105.585C115.34 102.852 121.957 101.007 128.734 100.105Z" fill="currentColor"/>
    <path d="M141.177 99.6833C153.516 100.211 165.442 103.839 175.893 110.127C176.769 109.783 177.449 108.951 177.449 107.849V102.135C177.449 100.782 178.548 99.6837 179.9 99.6837L215.306 99.6797C216.659 99.6797 217.757 100.778 217.757 102.131V244.628C217.757 244.859 217.757 245.09 217.749 245.32C217.486 281.327 196.298 305.579 158.35 305.579H120.163C83.93 305.579 66.287 285.847 65.0734 256.446C65.0256 255.348 65.0017 254.241 65.0017 253.119V250.792C65.0017 250.525 65.1092 250.27 65.2962 250.083C65.4832 249.892 65.7459 249.781 66.0125 249.781H104.983C106.336 249.781 107.434 250.879 107.434 252.232V252.817C107.434 262.82 114.708 269.493 128.953 269.493H153.197C168.051 269.493 175.022 261.611 175.022 245.842V236.48C164.781 242.45 153.174 245.894 141.177 246.407C139.444 246.481 138.037 245.068 138.037 243.333V212.664C138.037 210.65 139.91 209.161 141.911 209.391C143.281 209.547 144.674 209.628 146.086 209.628C157.836 209.628 168.284 204.049 174.923 195.395C179.618 189.274 182.408 181.616 182.408 173.306V173.141C182.372 164.895 179.587 157.297 174.923 151.218C172.263 147.751 168.992 144.777 165.271 142.458C159.704 138.988 153.129 136.984 146.086 136.984C144.674 136.984 143.281 137.065 141.911 137.222C139.91 137.452 138.037 135.963 138.037 133.949V102.758C138.037 101.023 139.444 99.6094 141.177 99.6833Z" fill="currentColor"/>
</svg>
